# xmcd
#
# Track frame offsets: 
#        150
#        24185
#        43452
#        52995
#        70450
#        80202
#
# Disc length: 1501 seconds
#
# Revision: 0
# Processed by: cddbd v1.5.2PL0 Copyright (c) Steve Scherf et al.
# Submitted via: ExactAudioCopy v0.99pb3
#
DISCID=5005db06
DTITLE=Swamp Cabbage - Drum Roll Please
DYEAR=2012
DGENRE=Rock
TTITLE0=Won't Get Fooled Agin
TTITLE1=Pick Up The Pieces
TTITLE2=Little Martha
TTITLE3=Theme From Shaft
TTITLE4=Black Mountain Side
TTITLE5=Frankenstein - Whipping Post
EXTD=
EXTT0=
EXTT1=
EXTT2=
EXTT3=
EXTT4=
EXTT5=
PLAYORDER=
